<?xml version='1.0' encoding='utf-8'?>
<svg xmlns="http://www.w3.org/2000/svg" enable-background="new 0 0 1515.93 1021.9" version="1.1" viewBox="0 0 1515.9 1021.9"> <style type="text/css"> .st0{fill-rule:evenodd;clip-rule:evenodd;fill:#DD9245;} .st1{fill-rule:evenodd;clip-rule:evenodd;fill:#7F7F4E;} .st2{fill-rule:evenodd;clip-rule:evenodd;fill:#68613C;} .st3{fill-rule:evenodd;clip-rule:evenodd;fill:#C3653E;} </style> <path class="st0" d="m57.91 715.17c-36.57 8.86-78-21.5-47.07-57.45 12.42-14.43 41.76-21.22 62.29-23.53-26.99-25.61-49.59-45.92-59.52-75.44-12.71-37.8 34.9-62.5 67.83-40.14 23.81 16.16 32.29 48.68 41.53 71.29 4.85-24.69 8.75-53.17 28.38-69.9 32.75-27.93 64.79 2.81 62.29 37.37-3.69 50.88-83.92 140.39-155.73 157.8"/> <path class="st1" d="m125.67 671.2c9.75-20.3 38.97-37.62 42.4-11.7 1.79 13.48 1.41 27.19-3.58 41.83 12.38 31.15 26.36 70.15 51.79 101.3-1.38-39.22-3.19-87.64 9.8-124.14 7.24-20.36 31.13-37.36 38.76 4.15 10.7 58.21 5.54 120.66-19.38 179.95 5.59 8.38 7.2 7.35 5.86 17.14-1.32 9.67-0.81 8.42-14.29 7.37-66.56-5.2-127.06-1.36-177.75-34.2-32.87-21.3-21.03-42.96 3.46-47.76 55.58-10.88 106.13 28.15 159.19 42.22-33.31-51.72-62.24-101.26-73.36-141.88-17.02-12.22-32.32-14.66-22.9-34.28"/> <path class="st1" d="m1234.3 247.99c31.54 54.34 53.5 149.37 55.94 327.43-18.65-44.11-35.85-90.7-80.49-129.61-27.63-24.08-58.35-12.26-43.66 30.01 16.92 48.72 85.04 110.51 117.33 167.81 0.13 100.31-22.81 163.36-48.23 217.97-16.57 35.63-22.38 28.23 7.3 56.25 54.57 2.28 115.59 12.11 162.35-17.74 32.57-20.79 27.53-38.52-16.37-45.02-30.67-4.54-70.94 2.73-133.7 40.93 74.58-84.59 189.13-127.96 246.94-222.39 39.28-64.16-9.63-112.19-65.49-73.67-61.97 42.74-107.32 117.33-143.25 171.9 15.58-61.39 23.08-122.79 20.47-184.18 51.84-54.57 109.73-102.97 150.07-163.72 37.62-56.65 8.03-78.33-39.56-46.39-42.98 28.85-73.67 67.31-110.51 158.26-6.45-118.62-16.17-224.35-62.76-291.96-5.47 1.39-10.93 2.76-16.38 4.12"/> <path class="st2" d="m1346.9 751.72c27.4-24.3 67.08-55.53 80.59-76.81 1.92-3.03 17.7-6.41 5.31 10.61-15.64 21.48-61.1 54.75-84.2 73.58-25.12 20.47-41.25 27.69-1.7-7.38m20.44-266.94c19.75-27.12 32.2-46.69 51.29-70.75 2.23-2.81 19.76-4.7 5.31 10.61-14.45 15.3-36.42 40.03-48.64 53.05-5.84 6.23-13.88 15.22-7.96 7.09z"/> <path class="st1" d="m235.93 319.83c-51.85-72.51-26.86-109.01 21.78-152.98 29.11-26.31 27.65-45.5 39.54-70.89 28.05-59.9 91.24-72.46 131.57-55.83 18.82 7.76 32.12 26.23 51.17 41.01 19.77 15.34 40.71 18.6 69.03 4.24 26.6-13.49 58.67-41.63 88.2-45.82 93.42-13.26 112.48 39.15 134.95 101.82 4.84 13.49 12.4 22.24 22.93 31.96 115.19 106.29 274.71 245.95 350.7 339.12 66.74 81.83 81.38 283.92 2.83 316.78 33.74 29.59 32.55 62.95 4.82 81.15-68.97 45.26-148.1 70.46-222.61 106.1-28.86 13.81-41.97-1.79-35.36-13.31 13.96-24.31 29.59-33.94 41.84-50.91-47.61 20.27-98.92 52.05-147.9 56.58-29.09 2.69-40.63-11.87-3.99-32.23 35.13-19.53 65.44-41.41 99.85-65.93-33 10.37-71.84 23.53-105.76 30.27-37.51 7.45-38.91-15.94-28-25.76 19.75-17.8 30.36-25.62 46.39-35.05-30.64 0.94-61.28 1.88-91.92 2.83-15.09 36.77-25.74 74.79-43.56 110.31-16.75 33.39-41.3 32.56-39.32 2.59 1.4-21.26 1.53-33.12 4.82-54.33-30.17 21.21-49.88 45.61-82.05 63.64-23.57 13.21-53.43 4.87-26.59-25.73 21.31-24.29 34.23-35.83 52.61-53.74-20.74 5.66-47.02 19.74-68.14 23.74-24.39 4.61-22.29-12.93-7.07-26.87 26.95-24.68 63.17-36.77 94.75-55.15 0-17.2 2.86-14.16-12.61-21.19-46.34-21.07-84.1-50.83-114.67-82.6-6.83 21.48-12.34 29.59-4.82 50.43 8.88 24.64 21.15 48.98 18.96 74.58-4.24 49.65-15.6 52.88-33.65 40.14-12.92-9.12-6.89-50.04-11.6-71.25-27.61 24.51-37.77 48.93-50.91 73.54-16.95 31.76-42.92 34.22-36.77 0 2.8-15.55 11.96-32.71 16.68-47.79-14.14 9.43-30.16 22.48-44.96 30.82-19.01 10.71-35.71-3.04-22.35-20.37 20.33-26.35 51.1-41.38 77.5-61.65-7.32-44.07-25.79-65.46-31.6-95.28-11.6-59.5-0.99-102.02 2.79-163 0.61-9.82 2.67-19.43 5-28.98 9.9-40.55-9.28-33.35-7.32-60.07 2.44-33.19-11.41-55.66-30.54-73.81-29.87-28.4-50.68-57.62-74.64-91.13"/> <path class="st2" d="m610.39 110.19c0.68-17.18 10.38-25.52 13.61-5.44 2.13 13.23 2.53 27.45 6.8 40.15 8.06 23.91 44.51 23.13 50.36 8.17 4.87-12.46 2.54-23.55 4.76-36.75 2.92-17.35 15.29-13.96 15.65 4.08 0.37 18.37 0.32 36.94-12.93 49.67-9.01 8.66-46.72 29.01-69.41-10.2-7.79-13.48-9.45-34.12-8.84-49.68m-296.69 120.44c-12.41-8.13-16.18 9.45-0.68 21.09 93.95 70.56 253.07 102.17 370.18 36.07 20.77-11.72 9.89-30.53-3.4-23.82-117.59 59.39-249.5 43.02-366.1-33.34zm111.6 25.18c-4.25-4.08-5.45-13.44-1.36-17.69s12.08 0 16.33 4.08c4.08 3.93 2.57 6.12-1.36 10.21-3.92 4.09-9.52 7.33-13.61 3.4zm88.49-0.47c3.41-3.95 11.86-5.73 16.05-2.59 4.19 3.13 0.92 10.28-2.49 14.23-3.28 3.8-5.39 2.68-9.42-0.33-4.03-3.02-7.42-7.51-4.14-11.31zm334.41 106.52c-11.21-4.08-19.86-14.36-4.14-14.06 15.13 0.28 40.83 18.23 46 27.64 2.46 4.47 5.21 15.21-6.86 13.83-6.49-0.74-20.32-22.07-35-27.41zm107.35 47.57c15.13 0.34 23.24 9.82 31.5 14.95 3.08 1.91 8.08 20.36-5.95 14.74-22.15-8.87-54.26-30.34-25.55-29.69zm-593.5 129.37c-9.64 36.56 52.92 161.23 103.77 212.8 18.07 18.32 27.14 33.22 51.56 47.97 25.32 15.28 18.83 9.58 3.78-7.11-18.7-20.73-43.74-48.79-70.54-87.27-37.28-53.57-67.9-121.26-88.57-166.39zm244.99 33.95c-12.41-32.42 10.2-12.6 12.85-8.26 39.94 65.49 27.24 156-5.51 267.93-0.91 3.12-7.04 7.78-6.42-7.34 2.91-71.67 42.02-140.13-0.92-252.33zm159.66-18.36c-7.24-23.88 8.11-13.12 11.01-2.75 41.68 149.07-2.1 240.31-57.81 321.15-2.69 3.9-15.03-0.94-1.83-22.94 43.28-72.11 85.07-175.25 48.63-295.46zm363.36 87.18c3.69 6.48 22.58 6.15 11.01-21.11-24.92-58.73-130.82-121.77-227.56-90.84-91.7 29.32-141 202.17 4.59 296.38-52.02 10.18-84.77 23.61-112.86 44.96-3.65 2.78 9.29 10.66 29.36 0.92 36.86-17.88 56.72-24.17 98.18-35.78 31.5 6.88 62.76 16.07 94.51 11.93 3.69-0.48 16.54-11.29 1.84-11.01-38.27 0.74-85.98-18.75-118.84-47.02-31.15-26.79-48.3-61.48-54.58-94.29-14.51-75.81 18.04-144.26 74.32-155.07 74.28-14.27 158.31 27.73 200.03 100.93zm-80.75 112.86c24.08-4.03 53.6 18.65 89.92 51.38 9.79 11.01 2.14 17.43-6.42 13.76-33.1-27.26-60.19-50.21-83.5-65.14zm-703.62-636.08c0.69-17.18 15.14-25.52 18.37-5.44 2.13 13.23-6.16 29.55 2.04 40.15 5.34 6.9 17.97 3.4 22.46-4.08 6.88-11.48 1.85-26.95 4.08-40.15 2.93-17.35 18-13.96 18.38 4.08 0.38 18.38-1.72 40.34-14.97 53.08-9.01 8.67-31.74 5.87-40.83-2.72-11.32-10.71-10.15-29.35-9.53-44.92z"/> <path class="st0" d="m1243.9 268.46c-14.1 20.92-22.52 47.1-42.3 62.76-44.8 35.45-64.67-1.66-62.76-35.47 2.07-36.7 20.46-45.48 36.84-76.4-25.92 7.73-50.75 24.62-77.76 23.19-37.03-1.96-58.87-48.9-16.37-80.49 26.12-19.42 64.58-8.19 96.87-12.28-20.92-21.37-49.96-37.09-62.76-64.12-26.33-55.63 18.04-86.48 54.57-60.03 21.35 15.47 36.38 50.02 50.48 72.31 5.91-24.56-3.26-59.23 12.28-79.13 32.71-41.88 100.15-7.56 85.95 42.29-8.4 29.5-15.46 46.39-27.29 76.4 25.92-12.73 48.89-38.59 77.76-38.2 49.13 0.66 55.14 45.34 30.02 76.4-16.55 20.46-50.02 23.19-75.04 31.38 13.19 16.83 26.38 26.83 39.56 43.66 20.65 40.54-8.69 76.54-53.21 61.4-25.19-8.58-44.56-29.12-66.84-43.67"/> <path class="st3" d="m1213.9 201.61c-12.78-10.27-12.7-26.98-4.09-40.93 6.96-11.28 31.64-27.43 43.66-21.83 25.87 12.04 31.11 38.68 20.46 55.94-10.57 17.13-31.55 29.69-60.03 6.82"/> </svg>