<?xml version='1.0' encoding='utf-8'?>
<svg xmlns="http://www.w3.org/2000/svg" enable-background="new 0 0 1653.35 1471.31" version="1.1" viewBox="0 0 1653.4 1471.3"> <style type="text/css"> .st0{fill-rule:evenodd;clip-rule:evenodd;fill:#C56E44;} .st1{fill-rule:evenodd;clip-rule:evenodd;fill:#EACA98;} .st2{fill-rule:evenodd;clip-rule:evenodd;fill:#745F3F;} .st3{fill-rule:evenodd;clip-rule:evenodd;fill:#B78B5C;} .st4{fill-rule:evenodd;clip-rule:evenodd;fill:#80834F;} .st5{fill-rule:evenodd;clip-rule:evenodd;fill:#E0A54F;} .st6{fill:#B1733F;} </style> <path class="st0" d="m789.24 1101c33.28 11.86 58.3 4.25 71.86 0.28 18.72-5.49 30.2-21.94 49.77-23.5 161.81-12.87 339.49-8.93 471.52 23.96 35.61 8.87 58.33-20.94 58.23-38.89-1.28-231.39 7.61-429.36 2.8-638.29-0.72-31.07-6.58-44.88-24.31-48.61-232.79-48.99-525.12-29.55-634.98 67.71-173.84-73.41-338.31-76.06-518.48-28.5-19.43 5.13-27.82 26.64-28.34 40.29-7.6 200.28-5.88 395.77 2.63 598.39 1.99 47.51 21.7 47.18 40.51 42.13 126.3-33.93 317.18-29.73 458.23-21.29 19.48 1.16 33.06 20.07 50.56 26.32"/> <path class="st1" d="m801.82 1045.1c33.29 11.88 35.99 5.85 57.89-1.11 170.79-54.38 335.25-74.07 483.56-37.27 35.62 8.84 37.37-20.94 37.27-38.89-1.29-231.39 4.81-418.18 0-627.11-0.72-31.07-6.58-44.88-24.31-48.61-220.31-46.37-392.56-15.16-503.52 70.76-26.35 20.41-17.38 14.66-50.85 2.14-161.93-60.57-317.02-60.1-485.89-15.52-19.43 5.13-27.82 26.64-28.34 40.29-7.6 200.28-14.26 401.35-5.75 603.98 2 47.51 21.7 47.18 40.51 42.13 142.29-38.23 323.47-46.45 479.43 9.21"/> <path class="st2" d="m813.03 400.84c0.16-5.31 4.6-9.41 9.92-9.17 5.32 0.25 9.49 4.76 9.33 10.07-3.15 103.36-3.75 206.62-1.1 309.73 2.65 102.92 8.57 206.1 18.47 309.58 0.5 5.31-3.39 9.96-8.69 10.37-5.31 0.42-10.02-3.55-10.52-8.87-9.88-103.36-15.81-207.02-18.49-310.93-2.67-103.72-2.08-207.31 1.08-310.78"/> <path class="st3" d="m938.49 554.68c-4.44 0-8.05-3.6-8.05-8.05 0-12.29 60.91-17.04 67.71-17.79 36.23-3.99 83.98-7.59 130.26-7.59 21.81 0 43.51 0.82 63.79 2.79 4.41 0.42 7.65 4.33 7.23 8.74s-4.33 7.65-8.74 7.23c-19.35-1.89-40.59-2.66-62.28-2.66-45.88 0-92.95 3.55-128.56 7.46-7.63 0.84-60.7 9.87-61.36 9.87m54.5 150.94c-4.44 0-8.05-3.6-8.05-8.05 0-12.29 60.91-17.04 67.71-17.79 36.23-3.99 83.98-7.59 130.26-7.59 21.82 0 43.51 0.82 63.79 2.79 4.41 0.42 7.65 4.33 7.23 8.74s-4.33 7.65-8.74 7.23c-19.35-1.89-40.58-2.66-62.28-2.66-45.88 0-92.95 3.55-128.56 7.46-7.62 0.84-60.69 9.87-61.36 9.87zm-36.86 130.49c-4.32 0.99-8.63-1.71-9.62-6.04-0.99-4.32 1.71-8.63 6.03-9.62 0.38-0.09 133.39-31.13 227.97-23.97 4.42 0.33 7.75 4.19 7.42 8.61s-4.19 7.75-8.61 7.42c-92.18-6.97-222.82 23.51-223.19 23.6zm145.54-377.95c-4.39 0.59-8.43-2.49-9.02-6.88s2.49-8.43 6.88-9.02c0.27-0.04 93.2-12.71 158.29-7.05 4.42 0.38 7.7 4.28 7.32 8.71s-4.28 7.71-8.71 7.32c-63.48-5.53-154.49 6.88-154.76 6.92z"/> <path class="st4" d="m542.59 605.37c-2.39-4.65-2.14-9.54 2.51-11.94s7.21 1.08 9.6 5.73c23.32 45.44 51.48 118.38 75.81 196.5-11.57-76.18-9.72-166.1 5.88-225.01 11.77-44.43 46.56-88.79 53.86 7.62 5.1 67.41-19.57 157.62-37.9 212.18-18.62 55.44 3.9 83.07 14.01 132.61 3.44 16.87-11.7 33.83-17.4 4.01-15.86-82.84-162.12-125.17-218.4-213.17-38.56-60.29 10.77-43.83 45.1-23.22 65.85 39.53 121.75 81.37 159.16 171.31-26.2-108.82-60.59-194.97-92.23-256.62"/> <path class="st5" d="m436.91 491.8c-54.43-33.98-87.05 3.83-47.52 53.94 67.27 85.28 129.53 126.88 180.91 106.6 47.4-26.55 26.53-129.81-30.09-223.88-30.14-50.08-59.87-38.53-52.86 15.91-42.3-41.64-85.09-15.51-50.44 47.43"/> <path class="st6" d="m486.67 453.55c-0.01-1.64 1.31-2.98 2.96-2.99 1.64-0.01 2.98 1.32 2.99 2.96 0.04 8.33 2.08 21.7 5.22 36.19 3.23 14.91 7.61 30.94 12.14 43.82 12.94 10.96 24.48 22.68 34 34.73 19.87 25.15 31.02 51.81 27.97 76.17-0.21 1.63-1.7 2.79-3.33 2.58s-2.79-1.7-2.58-3.33c2.84-22.63-7.81-47.78-26.74-71.73-20.92-26.48-51.89-51.37-86-69.86-1.44-0.78-1.98-2.6-1.2-4.04 0.78-1.45 2.6-1.98 4.04-1.2 15.97 8.65 31.27 18.7 45.22 29.65-3.5-11.15-6.78-23.68-9.34-35.53-3.23-14.81-5.32-28.62-5.35-37.42"/> <path class="st4" d="m320.87 146.16c-32.68-14.33-56.87-19.34-88.66-15.4-34.36 4.26-54.79 45.37-12.1 55.93 36.04 8.91 84.44-7.88 122.74-21.38 21.28 5.13 41.23 10.88 59.97 17.2-29.78-0.54-61.97 1.54-86.59 15.02-38.2 20.91-16.86 52.04 14.74 46.58 31.86-5.51 54.78-18.06 87.72-43.7l8.81-8.99c7.09 2.74 14 5.56 20.73 8.47 23.72 10.25 45.24 21.55 64.9 33.73-26.81-4.03-55.94-6.23-77.05 2.92-31.77 13.78-10.53 43.03 16.71 41.84 27.46-1.19 46.52-9.46 73.3-27.9l5.18-5.03c8.93 6.14 17.46 12.47 25.62 18.97 3 2.39 7.38 1.89 9.77-1.11s1.89-7.38-1.11-9.77c-20.33-16.2-42.88-31.35-68.22-45.18-5.06-33.67-11.89-75.54-34.53-100.89-27.26-30.53-53.11-2.74-41.93 25.46 9.36 23.58 22.2 40.2 43.86 59.1-3.62-1.66-7.3-3.3-11.03-4.91-14.81-6.4-30.45-12.4-47-17.97-12.88-28.09-29.27-62.47-53.19-80.98-29.24-22.63-41.71 4.78-25.49 27.58 13.17 18.5 27.11 30.91 47.86 43.86-17.4-4.93-35.71-9.43-55.01-13.45"/> <path class="st4" d="m845.01 288.12c-11.8-70.1-74.85-27.5-154.66-133.57-24.08-32 13.09-42.05 50.74-20.51 42.13 24.09 71.13 77.68 90.07 102.24-23.51-65.18-35.6-106.44-30.98-160.35 8.24-96.05 71.34-97.33 82.54-24.38 7.18 46.77-25.88 118.4-34.41 179-2.62 18.6 4.36 34.08 10.78 48.84 9.42 21.63-12.96 15.37-14.08 8.73"/> <path class="st4" d="m387.06 1181.5c-56.41 43.26-73.52-30.88-204.21-7.64-39.43 7.01-19.08 39.69 23.16 49.59 47.25 11.08 104.99-8.38 135.59-13.45-61.63 31.68-98.59 53.64-131.94 96.25-59.43 75.91-14.12 119.84 43.79 74.09 37.13-29.34 61.75-104.29 96.8-154.45 10.76-15.39 26.42-21.97 41.18-28.4 21.61-9.41 0.97-20.08-4.37-15.99"/> <path class="st4" d="m1316 227.59c-24.87-43.9-48.02-70.05-87.36-92.5-42.52-24.27-100.46 4.99-61.05 53.09 33.26 40.6 102.29 62.57 157.09 79.69 19.76 23.82 37.47 47.22 53.34 70.24-33.27-25.82-71.47-50.72-110.77-56.3-60.96-8.66-63.15 44.66-22.75 65.22 40.74 20.73 77.32 25.92 136.33 24.78l17.59-2.72c5.71 9.1 11.14 18.15 16.3 27.14 18.18 31.69 32.98 62.7 44.93 93.14-26.95-27.25-58.07-54.42-89.72-61.92-47.63-11.29-48.35 39.81-16.51 61.52 32.11 21.9 60.69 28.67 106.62 30.46l10.13-1.31c4.92 14.51 9.22 28.9 12.96 43.17 1.38 5.25 6.75 8.39 12 7.01s8.39-6.75 7.01-12c-9.31-35.55-22.02-71.8-39-108.92 22.77-42.41 50.48-95.6 46.31-143.48-5.03-57.64-57.82-48.07-69.03-6.66-9.37 34.62-8.9 64.31-0.37 104.06-2.7-4.95-5.47-9.92-8.33-14.9-11.35-19.78-23.98-39.82-38.01-60.13 9.2-42.71 19.73-95.52 8.32-136.73-13.95-50.38-51.27-29.9-52.2 9.65-0.76 32.1 4.52 57.95 17.06 90.18-15.52-20.3-32.43-40.89-50.89-61.78"/> <path class="st5" d="m1267.8 1275.1c-4.79 50.33 4.42 93.97 35.79 110.41 35.76 18.74 86.27-14.45 50.55-65.03 48.78 7.72 85.39-14.93 89.36-50.08 4.45-39.45-45.44-69.58-88.61-54.76 38.97-36.51 8.94-83.35-23.33-83.21-42.61 0.19-71.34 28.87-65.58 114.68-2.76 9.7 4.58 18.3 1.82 27.99"/> <path class="st6" d="m1281.3 1282.3c11.76 8.18 32.8 21.98 55.03 32.5 1.88 0.89 4.13 0.08 5.02-1.8s0.09-4.13-1.8-5.02c-21.93-10.38-42.68-24.01-54.14-32-0.36 0.66-0.74 1.31-1.14 1.96-0.93 1.52-1.92 2.98-2.97 4.36m10.49-31.3c10.59-3.72 26.23-10.35 46.74-22.08 1.81-1.04 2.43-3.35 1.4-5.15-1.04-1.81-3.35-2.43-5.15-1.39-19.09 10.91-33.65 17.25-43.71 20.9 0.45 2.52 0.69 5.11 0.72 7.72z"/> <path class="st4" d="m1284.3 1277.9c13.73-22.51 8.15-50.95-12.46-63.51-20.61-12.57-48.44-4.51-62.17 18-2.08 3.41-3.71 6.95-4.92 10.56-46.55-13.23-88.52-26.99-126.3-41.91-10.83-4.28-21.31-8.64-31.46-13.12 46.8-3.09 98.47-7.93 132.57-33.64 43.17-32.53 7.26-69.94-33.64-58.19-40.34 11.6-84.13 46.59-124.98 79.73-19.85-9.71-38.3-19.94-55.42-30.82-4.11-2.59-9.54-1.37-12.13 2.74-2.59 4.1-1.36 9.53 2.74 12.13 27.05 17.2 57.14 32.75 90.56 47.14 12.17 43.01 34.16 106.44 66.83 135.36 38.81 34.36 67.22-4.42 48.97-38.25-13.68-25.34-39.81-54.64-69.72-78.75 33.44 12.37 69.83 23.96 109.39 35.16 0.54 14.37 7.5 27.76 19.95 35.36 20.63 12.58 48.47 4.52 62.19-17.99"/> <path class="st4" d="m118.59 769.04c-8.62-51.22-54.69-20.09-113.01-97.6-17.59-23.38 9.56-30.72 37.08-14.99 30.78 17.6 51.97 56.76 65.81 74.71-17.18-47.63-26.01-77.77-22.64-117.17 6.02-70.19 52.13-71.11 60.31-17.81 5.25 34.18-18.91 86.51-25.14 130.79-1.91 13.59 3.19 24.9 7.88 35.69 6.88 15.8-9.47 11.23-10.29 6.38"/> <path class="st4" d="m607.42 1352.3c-28.96 20.85-45.57 39.13-58.34 68.52-13.8 31.75 11.21 70.25 42.01 38.86 26-26.5 36.16-76.71 44-116.56 15.23-15.72 30.33-29.96 45.3-42.89-15.6 25.37-30.19 54.14-31.1 82.2-1.42 43.53 36.24 40.98 47.6 11 11.45-30.23 12.3-56.35 6.98-97.75l-3.26-12.16c5.96-4.71 11.91-9.23 17.83-13.54 20.89-15.21 41.56-27.99 62.05-38.73-17.1 21.04-33.81 45-36.66 67.83-4.29 34.36 31.69 30.94 44.52 6.89 12.94-24.26 15.51-44.87 13.25-77.3l-1.69-7.02c9.83-4.57 19.61-8.7 29.36-12.42 3.58-1.37 5.38-5.39 4.01-8.97-1.37-3.59-5.39-5.38-8.97-4.01-24.28 9.27-48.8 20.98-73.6 35.77-31.56-12.76-71.09-28.17-104.43-21.57-40.15 7.95-29.37 44.34 0.61 49.05 25.06 3.94 45.9 1.33 73.19-7.71-3.27 2.28-6.55 4.61-9.84 7-13.04 9.5-26.16 19.91-39.37 31.34-30.74-3.2-68.67-6.56-96.78 4.62-34.36 13.67-17.1 38.34 10.79 35.97 22.63-1.93 40.4-7.62 62.1-18.91-13.1 12.43-26.28 25.9-39.56 40.49"/> <path class="st4" d="m1528.5 725.58c6.32 57.51 59.54 25.84 119.43 115.76 18.07 27.13-12.6 33.55-42.19 14.3-33.11-21.54-54.17-66.44-68.41-87.29 16.06 54.06 23.95 88.15 17.68 131.75-11.18 77.67-62.51 75.75-68.21 15.95-3.65-38.34 26.56-95 36.32-143.84 3-14.99-1.95-27.9-6.48-40.19-6.64-18.02 11.26-11.88 11.86-6.44"/> </svg>