<?xml version='1.0' encoding='utf-8'?>
<svg xmlns="http://www.w3.org/2000/svg" enable-background="new 0 0 1491.36 1228.83" version="1.1" viewBox="0 0 1491.4 1228.8"> <style type="text/css"> .st0{fill-rule:evenodd;clip-rule:evenodd;fill:#EACA98;} .st1{fill-rule:evenodd;clip-rule:evenodd;fill:#CC8F49;} .st2{fill-rule:evenodd;clip-rule:evenodd;fill:#80834F;} .st3{fill-rule:evenodd;clip-rule:evenodd;fill:#676A3A;} .st4{fill-rule:evenodd;clip-rule:evenodd;fill:#745F3F;} </style> <polygon class="st0" points="117.05 590.74 121.06 1218.3 1366.1 1210.2 1360.1 590.74"/> <path class="st0" d="m999.3 178.49c-66.41-50.22 21.2-148.99 65.29-75.33-13-136.27 153.62-128.25 145.65-30.13 61.94-51.34 105.05-52.33 147.32-13.39 31.57 29.08 19.53 104.28-33.48 108.82-27.15 2.33-48.55 3.91-75.33-31.81-26.79 41.91-73.66 55.79-110.49 6.7-45.21 74.21-93.76 56.59-138.96 35.14"/> <path class="st1" d="m311.52 225.85c14.91-21.24 38.22-43.18 64.16-44.11 239.82-8.58 451.72 7.98 691.68 10.02 90.81 0.77 108.25 21.3 128.31 52.13 86.96 133.62 146.17 214.32 210.51 326.79 27.2 47.54 23.76 72.47-34.08 76.19-420.83 27.05-843.74 21.46-1265.1 4.01-23.91-0.99-63.32-18.95-42.1-58.14 72.9-134.68 166.01-252.11 246.59-366.89"/> <path class="st2" d="m591.15 1177.5c-13.51-91.97-9.88-230.12 25.11-316.1 71.83-176.46 271.98-120.79 300.73 2 22.43 95.81 25.21 230.36 21.56 315.83-1.59 37.25-1.64 34.99-36.29 36.85-97.01 5.21-176.91 5.02-268.78 0.86-35.21-1.59-36.62-0.56-42.33-39.44"/> <path class="st3" d="m690.33 856.55c0.26-14.04 15.13-13.26 15.41 0.96 1.95 95.68 2.79 191.41 0.96 287.09-0.26 13.65-15.12 12.74-15.41-1.93-1.9-95.35-2.74-190.76-0.96-286.12"/> <path class="st3" d="m808.41 845.92c0.29-14.04 13.58-13.2 13.78 1.02 1.34 95.69 1.61 214.54-0.42 310.21-0.29 13.65-13.58 12.69-13.78-1.98-1.3-95.36-1.56-213.9 0.42-309.25"/> <path class="st3" d="m858.92 1004c3.86-1.93 20.23-6.74 27.94-2.89 14.13 7.06 15.38 43.33-1.93 47.21-49.11 10.99-33.06-40.8-26.01-44.32"/> <path class="st2" d="m220.19 1063.7c43.67-59.09 146.12-21.84 119.46 88.63 50.42-63.26 136.55-37.99 119.46 61.66-1 5.83-14.31 8.46-20.23 8.67-113.29 4.01-218.14 8.36-322.74-0.96-16.59-1.48-43.42-3.16-57.81-11.56-102.47-59.84-53.95-158 23.12-121.39-48.49-78.35 2.65-129.26 46.24-123.32 35.01 4.78 86.39 37.9 92.5 98.27"/> <path class="st2" d="m1173.1 1228.3c-14.11-0.48-24.63-17.81-28.46-31.4-33.45-118.96 33.37-188.41 123.65-132.48 28.78-123.97 63.17-149.11 118.74-133.46 24.62 6.93 39.26 60.84 17.66 114.81 45.14-44.16 95.47-3.53 85.37 44.16-10.04 47.42-36.14 93.9-76.54 123.65-8.43 6.21-25.86 7.21-36.31 7.85-69.91 4.28-138.37 9.13-204.11 6.87"/> <path class="st3" d="m270.44 1172.5c0-8.55-18.5-36.52-25.6-41.26-5.54-3.69-11.38-12.34-7.11 17.07 2.88 19.89 10.31 32.95 19.92 44.1 8.04 9.34 12.79-7.58 12.79-19.91m-125.18-62.6c10.24-14.18 21.94 24.64 32.72 38.41 7.73 9.88 25.84 16.85 18.49 27.03-5.47 7.57-19.85-4.03-25.61-11.38-12.28-15.7-37.27-37.9-25.6-54.06z"/> <path class="st3" d="m1385.8 1167.8c5.74-4.03 18.32-25.99 19.13-31.61 0.63-4.37 4.48-11.22-13.83 4.66-12.38 10.74-18.67 20.42-22.94 30.24-3.57 8.23 9.37 2.52 17.64-3.29m-108.14 8.95c-11.62-2.51 1.43-18.92 8.54-28.45 17.58-23.56 13.35-36.27 18.49-59.75 4.2-19.19 25.63-17.47 27.03-9.96 6.93 37.08-9.29 51.61-19.91 68.29-6.67 10.46-14 34.22-34.15 29.87z"/> <path class="st4" d="m277.06 960.54c19.69 3.61 39.92 5.61 60.34 6.09-1.06-25.21-1.88-54.3-2.52-84.08l-0.19-9.07c-27.38 1.45-54.29 2.94-76.89 4.21 1.2 19.79 3.27 39.66 5.33 59.53l0.36 3.5c0.48 4.65 2.62 9.88 5.85 14.06 2.34 3.03 5.05 5.27 7.72 5.76m155.45-18.85c3.25-23.12 3.28-48.02 2.48-73.12-20.95 0.89-45.63 2.09-71.05 3.39l-3.22 0.16 0.2 9.92c0.63 29.58 1.46 58.74 2.56 84.38 18.69-0.74 37.28-2.74 55.51-5.93 2.58-0.45 5.22-2.54 7.51-5.37 3.2-3.94 5.37-8.93 6.01-13.43zm-58.55-178.92c-4.83-0.31-9.77-0.58-14.73-0.82 0.2 25.12 0.52 54.21 1.01 84.09l2.36-0.12c25.08-1.28 49.78-2.47 71.33-3.39l-0.05-1.23c-0.79-17.97-1.58-35.76-1.5-53.3-1.97-5.13-7.5-18.61-11.62-19.7-9.52-2.5-27.22-4.28-46.8-5.53zm-100.22 5.97c-6.09 5.26-10.89 11.51-11.82 16.38-4.15 21.91-5.44 44.13-5.13 66.51 22.57-1.27 49.6-2.77 77.43-4.24-0.5-30.66-0.83-60.65-1.03-86.46-17.88-0.53-33.78-0.71-42.83-0.71-4.55 0.01-10.88 3.57-16.62 8.52zm-37.45 11.59c2.04-10.79 10.27-22.57 20.39-31.29 10.09-8.7 22.66-14.95 33.68-14.95 15.7 0 52.43 0.55 85.24 2.64 21.01 1.34 40.42 3.36 51.81 6.36 18.42 4.84 30.29 38 30.33 38.1l0.72 4.49c-0.16 17.26 0.66 35.78 1.48 54.5 1.56 35.33 3.15 71.37-1.59 105.09-1.26 8.94-5.47 18.7-11.62 26.29-5.99 7.4-13.97 13.04-23.24 14.66-25.1 4.39-50.77 6.66-76.37 6.66-24.96 0-50.07-2.19-74.75-6.72-9.54-1.75-17.66-7.7-23.65-15.45-6.13-7.93-10.2-18.1-11.16-27.33l-0.36-3.5c-5.51-53.09-11.03-106.21-0.91-159.55z"/> <path class="st4" d="m1169 968.28c10.82 0 21.45-0.44 31.23-1.53 20.64-2.29 36.49-6.71 37.99-14.66l0.09-0.51c2.21-22.58 4.49-46.45 5.65-70.29-21.32-1.36-46.55-2.95-72.06-4.49-0.68 31.46-1.62 62.71-2.9 91.48m-93.92-96.93c0.19 32.77 2.49 62.73 3.88 73.22 0.33 2.49 0.51 4.12 0.68 5.71 0.58 5.42 1.09 10.15 1.83 10.29 8.19 1.54 21.74 3.52 37.63 5.08 7.53 0.74 15.58 1.38 23.85 1.85 1.31-29.38 2.26-60.86 2.94-92.26-25.37-1.48-50.07-2.86-70.81-3.89zm72.27-101.54c-23.63-1.22-46.7-1.61-57.61 1.36-5.82 1.58-9.71 19.87-12.26 43.48-1.05 9.69-1.7 20.08-2.06 30.62 21.33 1.05 45.99 2.41 70.97 3.87 0.48-27.45 0.78-54.38 0.96-79.33zm99.2-11.86c9.47 6.23 16.91 15.1 18.89 26.12 4.92 27.36 5.94 56.52 5.04 85.65-0.89 28.83-3.62 57.48-6.24 84.31-0.1 1.09-0.24 2.04-0.39 2.86-4.17 22.11-29.13 32.28-60.76 35.79-27.09 3.01-59.94 1.49-86.44-1.1-16.98-1.66-31.35-3.75-39.97-5.38-19.8-3.73-21.28-17.44-22.97-33.17-0.21-1.95-0.43-3.95-0.58-5.1-2.32-17.39-7.01-85.77-1.58-136.04 3.65-33.76 12.69-60.86 31.36-65.94 20.15-5.48 65.01-2.44 98.66-0.16 13.75 0.93 25.59 1.74 31.91 1.77 10.39 0.05 23.11 3.84 33.07 10.39zm-6.74 30.72c-0.58-3.21-3.59-6.36-7.55-8.97-5.85-3.85-13.11-6.07-18.89-6.1-8.07-0.04-19.85-0.84-33.54-1.77l-6.44-0.44c-0.19 25.1-0.49 52.04-0.97 79.29 26.11 1.58 51.26 3.15 72.3 4.5 0.16-22.87-1.11-45.42-4.91-66.51z"/> <path class="st4" d="m1267.3 492.61c1.4-5.22-1.71-10.59-6.93-11.99s-10.59 1.71-11.98 6.93c-2.26 8.36-9.84 17.09-20.59 24.32-9.48 6.38-21.27 11.41-34.08 13.95-12.73 2.53-26.41 2.56-39.7-1.04-17.51-4.74-34.53-15.9-48.14-36.14-3-4.48-9.07-5.68-13.56-2.68-4.48 3-5.68 9.07-2.68 13.56 16.56 24.63 37.57 38.28 59.32 44.18 16.36 4.43 33.05 4.41 48.5 1.35 15.38-3.05 29.64-9.16 41.2-16.93 14.61-9.83 25.13-22.53 28.64-35.51m-348.47-20.69-0.03-0.07-0.06-0.15-0.04-0.08-0.06-0.13-0.04-0.1-0.05-0.12-0.05-0.11-0.26-0.52-0.08-0.13-0.16-0.28-0.09-0.14-0.04-0.06-0.1-0.14-0.14-0.2-0.04-0.05-0.11-0.14-0.15-0.19-0.04-0.05-0.11-0.13-0.04-0.05-0.11-0.13-0.16-0.17-0.17-0.17-0.05-0.06-0.17-0.17-0.11-0.1-0.07-0.06-0.11-0.1-0.08-0.07-0.1-0.09-0.09-0.07-0.09-0.08-0.1-0.08-0.08-0.07-0.12-0.09-0.07-0.06-0.13-0.09-0.06-0.04-0.14-0.1-0.05-0.03-0.16-0.1-0.04-0.02-0.18-0.11-0.03-0.01-0.19-0.11-0.02-0.01-0.2-0.11-0.21-0.11-0.01-0.01-0.22-0.11c-0.72-0.33-1.46-0.57-2.21-0.72l-0.07-0.02-0.16-0.03-0.2-0.03-0.03-0.01-0.32-0.04h-0.01c-1.15-0.13-2.33-0.07-3.5 0.23l-0.22 0.06h-0.01l-0.21 0.06-0.03 0.01-0.2 0.06-0.04 0.02-0.24 0.08-0.17 0.06-0.07 0.03-0.15 0.06-0.09 0.04-0.13 0.06-0.1 0.04-0.12 0.05-0.11 0.05-0.52 0.26-0.13 0.08-0.21 0.12-0.06 0.04-0.14 0.09-0.06 0.04-0.14 0.1-0.2 0.14-0.05 0.04-0.14 0.11-0.19 0.15-0.05 0.04-0.13 0.11-0.05 0.04-0.13 0.11-0.18 0.16-0.17 0.17-0.06 0.05-0.28 0.28-0.06 0.07-0.1 0.11-0.07 0.08-0.09 0.1-0.07 0.09-0.08 0.09-0.08 0.1-0.07 0.08-0.09 0.11-0.06 0.07-0.09 0.13-0.04 0.06c-8.4 11.94-17.11 21.34-25.92 28.44-14.63 11.79-29.55 17.24-43.77 17.56-14.17 0.32-27.91-4.43-40.2-13.07-7.18-5.04-13.86-11.39-19.84-18.82-3.38-4.21-9.54-4.88-13.75-1.49-4.21 3.38-4.88 9.54-1.49 13.75 7.15 8.88 15.17 16.5 23.82 22.57 15.62 10.97 33.33 17 51.84 16.59 18.46-0.41 37.46-7.21 55.64-21.85 6.71-5.4 13.31-11.87 19.73-19.49 9.47 16.76 22.06 28.81 36.32 36.74 13.85 7.71 29.2 11.46 44.71 11.84 15.32 0.38 30.79-2.53 45.11-8.14 23.66-9.27 44.42-26.02 56.46-47.65 2.62-4.71 0.92-10.67-3.79-13.29-4.72-2.62-10.67-0.92-13.29 3.79-9.76 17.55-26.87 31.23-46.5 38.92-12.01 4.7-24.88 7.14-37.53 6.83-12.45-0.3-24.7-3.28-35.67-9.39-14.4-7.98-26.76-21.54-34.69-41.75zm-340.61 25.35c2.5-4.8 0.63-10.72-4.17-13.21-4.8-2.5-10.72-0.63-13.21 4.17-9.75 18.7-27.25 32.98-47.05 40.25-10.08 3.7-20.69 5.57-31.1 5.27-10.22-0.29-20.33-2.69-29.62-7.54-14.77-7.7-27.54-21.74-35.53-43.5-1.86-5.07-7.49-7.68-12.56-5.82-3.15 1.15-5.34 3.76-6.12 6.78-6.08 17.9-15.91 28.79-27.08 34.05-5.26 2.47-10.84 3.74-16.48 3.92-5.82 0.19-11.73-0.73-17.42-2.62-14.89-4.94-28.34-16.38-35.63-31.85-2.31-4.89-8.13-6.98-13.02-4.67-4.89 2.3-6.98 8.13-4.67 13.02 9.59 20.37 27.42 35.48 47.19 42.04 7.87 2.61 16.05 3.88 24.16 3.61 8.29-0.27 16.5-2.13 24.22-5.76 10.84-5.1 20.66-13.66 28.33-26.21 9.48 15.97 21.8 27.23 35.57 34.4 11.93 6.22 24.94 9.31 38.12 9.68 12.99 0.37 26.07-1.91 38.37-6.42 24.19-8.87 45.65-26.46 57.7-49.59zm237.43-152.73c5.07-1.84 7.7-7.45 5.86-12.52s-7.45-7.7-12.52-5.86c-6.24 2.27-12.06 4.68-17.87 7.09-34.53 14.31-69.07 28.63-109.41-31.35-3-4.48-9.07-5.68-13.56-2.68-1.38 0.92-2.44 2.13-3.17 3.49-9.77 17.49-26.84 31.12-46.43 38.8-12.01 4.71-24.88 7.14-37.53 6.83-12.45-0.31-24.7-3.28-35.67-9.39-14.42-8.02-26.79-21.6-34.72-41.85-1.97-5.03-7.64-7.52-12.67-5.55-1.81 0.71-3.29 1.89-4.35 3.36-24.72 32.19-48.91 50.17-72.49 52.72-23.06 2.5-46.68-9.98-70.87-38.61-3.49-4.12-9.66-4.64-13.79-1.15-4.12 3.49-4.64 9.66-1.15 13.79 28.72 33.98 58.03 48.66 87.87 45.43 25.83-2.8 51.2-19.17 76.13-48.18 9.49 16.97 22.17 29.13 36.54 37.13 13.85 7.7 29.2 11.46 44.71 11.84 15.32 0.38 30.79-2.52 45.11-8.14 18.92-7.41 35.98-19.6 48.21-35.25 45.7 59.58 85.23 43.21 124.74 26.83 5.81-2.4 11.62-4.81 17.03-6.78z"/> <path class="st4" d="m931 175.28c-0.07-9.57 1.2-25.26 10.67-26.68 52.33-7.83 90.14-4.51 142.73 1.33 9.39 1.04 20.23 9.29 21.34 18.67 5.89 49.45 2.4 99.74-1.34 149.4-0.76 10.13-1.99 26.34-12 28.01-51.31 8.55-88.42 6.25-140.06 0-7.3-0.88-8.43-12.71-9.34-20.01-6.24-50-11.62-100.32-12-150.72"/> </svg>