<?xml version='1.0' encoding='utf-8'?>
<svg xmlns="http://www.w3.org/2000/svg" enable-background="new 0 0 1477.22 962.43" version="1.1" viewBox="0 0 1477.2 962.43"> <style type="text/css"> .st0{fill-rule:evenodd;clip-rule:evenodd;fill:#C56E44;} .st1{fill-rule:evenodd;clip-rule:evenodd;fill:#745F3F;} .st2{fill-rule:evenodd;clip-rule:evenodd;fill:#E0A54F;} .st3{fill:#B1733F;} .st4{fill-rule:evenodd;clip-rule:evenodd;fill:#80834F;} </style> <path class="st0" d="m247.12 399.8c-70.83-36.62-118-60.59-189.09-120.65-35.99-30.41-88.15 11.71-36.02 99.04 38.39 64.31 83.44 79.84 138.66 118.85-84.03 109.25 262.32 300.32 482.62 241.31 223.53-59.87 352.09-262.42 286.33-601.47-18.7-96.42-137.37-178.87-271.92-113.45-64.93 31.57-94.13 79.96-117.05 135.06-53.4 128.39-195.69 198.69-293.53 241.31"/> <path class="st1" d="m922.42 131.48c-18.9 19.39-8.35 67.34 18.01 73.54 8.98 2.11 44.11-3.77 66.52-17.71 17.42-10.83 43.37-19.61 9.12-36.02-28.78-13.78-81.11-32.68-93.65-19.81m-237.92 204.9c0.59-6.82-19.16-15.96-19.38 1.14-2.9 225.47-216.16 292.15-389.86 206.33-17.86-8.82-30.83-8.57-20.52 0 115.33 95.86 401.23 118.94 429.76-207.47zm139.07-161.87c9.86-11.78 2.38-25.33-6.84-37.62-8.94-11.92-34.89-15.98-44.46-4.56-11.48 13.72-13.01 31.28 2.28 45.6 8.36 7.82 41.67 5.35 49.02-3.42z"/> <path class="st1" d="m449.23 704.35c19.91 54.71 33.35 116.91 61.01 166.71 7.56 13.61 30.36 20.82 41.04 28.5 20.99 15.09 8.36 21.48-7.98 20.52-10.86-0.64-15.78-9.87-26.22-6.84-0.36 0.1-15.57 39.01-23.67 6.2-1.41-5.72-1.04-12.4-2.54-17.6-19.8-68.17-44.35-133.53-61-195.63-5.65-21.06 10.78-25.44 19.36-1.86m141.87 8.03c18.58 54.67 38.19 109.42 66.19 159.83 7.56 13.61 30.36 10.56 41.03 18.24 20.99 15.09 8.36 21.48-7.98 20.52-10.86-0.64-13.49-11.01-23.94-7.98-7.87 2.28-3.36 19.84-11.4 18.24-10.86-2.17-12.9-18.25-17.1-28.5-24.16-58.91-46.44-118.58-68.35-178.37-11.58-31.65 12.69-28.05 21.55-1.98z"/> <path class="st2" d="m1259.8 517.82c78.13 32.82 152.56 39.9 194.54-2.07 47.86-47.84 20.01-145.24-78.78-113.38 36.74-74.19 18.8-144.08-35.46-168-60.89-26.84-134.04 37.91-131.9 114.39-38.94-80.59-128.89-55.97-144.79-4.27-21 68.27 10.53 128.57 150.71 162.25 14.14 9.27 31.56 1.82 45.68 11.08"/> <path class="st3" d="m1278 499.81c18.97-14.73 51.56-41.49 79.5-71.8 2.37-2.57 2.2-6.57-0.37-8.94s-6.57-2.2-8.94 0.37c-27.57 29.91-59.75 56.28-78.27 70.63 0.87 0.91 1.73 1.85 2.57 2.8 1.99 2.25 3.82 4.57 5.51 6.94m-44.84-32.43c-0.65-18.81-3.45-47.14-11.96-85.83-0.76-3.41-4.14-5.57-7.55-4.81s-5.56 4.14-4.81 7.55c7.92 36 10.78 62.47 11.6 80.38 4.27 0.55 8.53 1.45 12.72 2.71z"/> <path class="st4" d="m1272.5 492.87c-29.16-33.22-77.44-38.5-107.85-11.81s-31.43 75.25-2.27 108.47c4.42 5.03 9.27 9.41 14.43 13.15-44.43 67.86-87.43 128.14-130.18 181.13-12.25 15.19-24.48 29.77-36.72 43.77 18.46-76.42 36.53-161.51 12.45-228.93-30.47-85.33-108.28-46.57-109.91 24.73-1.6 70.35 32.48 157.9 65.1 239.82-25.46 26.91-51.05 51.31-77.01 73.26-6.2 5.27-6.95 14.57-1.68 20.77s14.57 6.95 20.77 1.68c41.04-34.69 80.96-75.05 120.7-121.33 74.89 2.02 187.38-1.45 249.97-39.26 74.38-44.93 26.53-109.77-36.71-97.47-47.38 9.21-107.32 36.39-160.85 72.18 36.51-47.32 73.25-99.74 110.94-157.45 23.26 6.33 48.17 1.88 66.54-14.25 30.41-26.68 31.43-75.24 2.28-108.46"/> </svg>