<?xml version='1.0' encoding='utf-8'?>
<svg xmlns="http://www.w3.org/2000/svg" enable-background="new 0 0 1556.33 1359.62" version="1.1" viewBox="0 0 1556.3 1359.6"> <style type="text/css"> .st0{fill-rule:evenodd;clip-rule:evenodd;fill:#C56E44;} .st1{fill-rule:evenodd;clip-rule:evenodd;fill:#80834F;} .st2{fill-rule:evenodd;clip-rule:evenodd;fill:#745F3F;} .st3{fill-rule:evenodd;clip-rule:evenodd;fill:#E0A54F;} .st4{fill:#B1733F;} </style> <path class="st0" d="m536.93 291.79c-117.63 49.85-159.4 191.65-142.26 355.89 13.37 128.16 64.59 360.73 145.03 493.58 45.99 75.94 138.47 113.33 235.59 57.24 263.06-151.93 425.89-306.83 464.83-516.61 21.98-118.4-64.98-260.95-169.56-320.65-155.78-88.93-368.48-139.44-533.63-69.45"/> <path class="st1" d="m579.78 160.54c-40.12-80.62 29.49-161.51 119.36-96.23 66.31 48.16 86.84 118.43 131.9 183.83 7.04-83.54 27.78-197.6 71.29-230.34 49.83-37.5 108.77-10.05 127.64 29.69 38.37 80.8-16.37 161.9-66.04 241.84 85.6-35.73 75.4-33.5 165.97-57.96 121.35-32.77 197.3 102.78 54.05 143.85-113.64 32.58-230.86 29.23-314.8 4.81-122.09-35.52-236.17-112.6-289.37-219.49"/> <path class="st2" d="m575.79 738.67c10.51-30.57 30.81-24.23 32.75-0.25 1.44 17.87 1.22 37.01-6.44 53.57-12.96 28-39.6 27.52-40.15-5.31-0.31-18.69 7.69-30.14 13.84-48.01m115.77 236.26c14.12-33.33 36.19-24.77 36.45 2.13 0.19 20.05-1.57 41.39-11.41 59.3-16.64 30.29-46.23 27.78-44.24-8.88 1.14-20.88 10.95-33.06 19.2-52.55zm211.47-164.15c20.55-30.17 40.36-17.57 35.15 8.97-3.88 19.78-9.93 40.47-23.17 56.26-22.38 26.69-50.77 18.65-41.39-17.09 5.35-20.35 17.4-30.5 29.41-48.14zm175.05-229.89c11.12-34.93 31.34-28.02 32.82-0.78 1.1 20.31 0.52 42.08-7.48 61.03-13.52 32.04-40.21 31.89-40.13-5.44 0.05-21.25 8.29-34.39 14.79-54.81zm-272.82-14.19c11.26-35.96 31.46-28.92 32.84-0.9 1.02 20.88 0.35 43.28-7.73 62.8-13.66 33-40.35 32.93-40.12-5.47 0.12-21.86 8.42-35.4 15.01-56.43zm-204.18-134.92c12.06-35.87 34.96-28.54 37.01-0.45 1.52 20.94 1.17 43.37-7.59 62.81-14.81 32.87-44.92 32.43-45.34-6.04-0.25-21.9 8.86-35.35 15.92-56.32z"/> <path class="st1" d="m1376.7 1124.5c67.49-18.33 110.56-40.45 154.22-85.58 47.19-48.77 27.78-136.63-50.34-100.22-65.94 30.74-119.15 115.89-160.96 183.61-38.77 18.35-76.28 34.11-112.65 47.52 46.09-35.82 92.66-78.58 113.64-129.44 32.56-78.9-38.3-100.14-79.79-52.94-41.83 47.59-61.36 94.95-80.08 174.58l-2.38 24.55c-14.19 4.55-28.2 8.73-42.04 12.57-48.8 13.54-95.53 22.77-140.52 28.37 45.86-26.84 93.02-59.32 113.96-99.24 31.52-60.1-36.87-78.6-76.96-43.29-40.43 35.61-59.34 71.67-77.51 132.74l-1.72 14.05c-21.18 1.63-41.98 2.46-62.43 2.58-7.52 0.05-13.58 6.19-13.54 13.71 0.05 7.52 6.19 13.58 13.71 13.54 50.94-0.29 103.98-4.92 159.67-14.99 49.14 45.14 111.07 100.62 176.8 111.45 79.14 13.04 84.41-61.16 32.64-90.43-43.28-24.47-83.32-34.03-139.62-36.22 7.57-1.93 15.19-3.95 22.87-6.08 30.46-8.45 61.71-18.54 93.81-30.41 54.2 27.02 121.51 59.29 180.78 58.12 72.45-1.44 57.76-58.59 4.96-73.43-42.85-12.04-79.38-13.82-126.97-8.05 32.59-13.81 66.05-29.45 100.45-47.07"/> <path class="st3" d="m168.4 959.3c-56.46 30.54-112.05 41.41-146.82 12.89-39.63-32.51-25.87-108.01 50.97-91.32-33.2-53.21-24.87-107.22 14.26-129.28 43.91-24.75 103.86 18.63 107.93 76.44 23.37-63.65 93.01-51.77 108.84-13.97 20.9 49.91 1.61 97.71-101.57 133.5-9.96 8.03-23.64 3.7-33.61 11.74"/> <path class="st4" d="m153.37 947.07c-15.4-9.69-41.95-27.45-65.26-48.23-1.97-1.76-2.15-4.79-0.39-6.76s4.79-2.15 6.76-0.39c23 20.5 49.22 37.99 64.25 47.44-0.59 0.75-1.17 1.52-1.73 2.3-1.32 1.84-2.53 3.72-3.63 5.64m31.39-27.78c-0.9-14.23-0.9-35.8 2.65-65.59 0.32-2.63 2.71-4.5 5.33-4.18 2.63 0.32 4.5 2.71 4.18 5.33-3.3 27.72-3.49 47.89-2.77 61.46-3.17 0.72-6.31 1.72-9.39 2.98z"/> <path class="st1" d="m157 941.43c19.51-27.2 55.52-34.77 80.43-16.91s29.28 54.4 9.77 81.6c-2.96 4.12-6.29 7.78-9.91 10.98 38.53 47.86 75.42 90.11 111.59 126.88 10.36 10.54 20.67 20.63 30.93 30.27-19.59-56.24-39.53-119.05-26.38-171.66 16.64-66.59 78.17-43.15 84.69 10.49 6.43 52.91-12.76 121.44-31.27 185.62 21.19 18.4 42.29 34.89 63.5 49.51 5.06 3.52 6.32 10.47 2.81 15.54-3.51 5.06-10.47 6.32-15.53 2.81-33.52-23.1-66.61-50.56-100-82.51-56.31 7.08-141.37 12.82-191.36-11.04-59.41-28.35-28.15-80.78 20.44-76.2 36.4 3.43 83.6 19.47 126.61 42.48-31.04-32.96-62.62-69.75-95.32-110.46-17.07 6.5-36.17 4.99-51.22-5.8-24.92-17.86-29.29-54.4-9.78-81.6"/> </svg>